<svg width="24" height="24" viewBox="0 0 18 16" fill="none" xmlns="http://www.w3.org/2000/svg">
    <path d="M0.75 7.75H16.75M0.75 11.25H16.75M0.75 14.75H16.75M2.56818 0.75H14.9318C15.414 0.75 15.8765 0.934374 16.2175 1.26256C16.5584 1.59075 16.75 2.03587 16.75 2.5C16.75 2.96413 16.5584 3.40925 16.2175 3.73744C15.8765 4.06563 15.414 4.25 14.9318 4.25H2.56818C2.08597 4.25 1.62351 4.06563 1.28253 3.73744C0.941558 3.40925 0.75 2.96413 0.75 2.5C0.75 2.03587 0.941558 1.59075 1.28253 1.26256C1.62351 0.934374 2.08597 0.75 2.56818 0.75Z" stroke="#1F2937" stroke-width="1.5" stroke-linecap="round" stroke-linejoin="round"/>
</svg>
